<svg width="17" height="16" viewBox="0 0 17 16" fill="none" xmlns="http://www.w3.org/2000/svg">
<path fill-rule="evenodd" clip-rule="evenodd" d="M14.9326 0.170634C14.8076 0.0547485 14.6644 -0.00775152 14.5042 0.00136307C14.3441 0.00136307 14.2008 0.0638631 14.085 0.188863L13.1383 1.17063L15.7894 3.73183L16.7438 2.73183C16.8597 2.61595 16.904 2.4636 16.904 2.30345C16.904 2.14329 16.8415 1.99095 16.7256 1.88418L14.9326 0.170634ZM1.99251 0.662821H8.52897V2.36074H2.80371C2.74902 2.36074 2.69824 2.38418 2.66178 2.42063C2.62533 2.45709 2.60189 2.50787 2.60189 2.56256V13.9831C2.60189 14.0378 2.62533 14.0886 2.66178 14.1251C2.69824 14.1615 2.74902 14.185 2.80371 14.185H14.2243C14.279 14.185 14.3298 14.1615 14.3662 14.1251C14.4027 14.0886 14.4261 14.0378 14.4261 13.9831V8.47662H16.124V14.793C16.124 15.0938 16.0003 15.3633 15.8037 15.56C15.6071 15.7566 15.3337 15.8803 15.0368 15.8803H1.99251C1.69043 15.8803 1.4222 15.7566 1.22559 15.56C1.02897 15.3646 0.905273 15.0899 0.905273 14.793V1.75006C0.905273 1.44798 1.02897 1.17975 1.22559 0.983134C1.4209 0.786519 1.69564 0.662821 1.99251 0.662821ZM9.97038 9.7748C9.62272 9.89069 9.26465 9.99746 8.91699 10.1146C8.56934 10.2305 8.22038 10.3464 7.86361 10.4623C7.03288 10.7305 6.57845 10.8816 6.47949 10.9089C6.38184 10.9363 6.44434 10.5521 6.64876 9.74876L7.30892 7.22272L7.36361 7.16673L9.97038 9.7735V9.7748ZM8.32845 6.16412L12.4209 1.91412L15.0719 4.46621L10.9339 8.76959L8.32845 6.16412Z" fill="#9BA0B1"/>
</svg>
